<svg xmlns="http://www.w3.org/2000/svg" version="1.1" xmlns:xlink="http://www.w3.org/1999/xlink" width="1000" height="1000"><g clip-path="url(#SvgjsClipPath1003)"><rect width="1000" height="1000" fill="#ffffff"></rect><g transform="matrix(3.5,0,0,3.5,150,150)"><svg xmlns="http://www.w3.org/2000/svg" version="1.1" xmlns:xlink="http://www.w3.org/1999/xlink" width="200" height="200"><svg xmlns="http://www.w3.org/2000/svg" version="1.1" xmlns:xlink="http://www.w3.org/1999/xlink" viewBox="0 0 200 200"><rect width="200" height="200" fill="url('#gradient')"></rect><defs><linearGradient id="gradient" gradientTransform="rotate(45 0.5 0.5)"><stop offset="0%" stop-color="#f8db3e"></stop><stop offset="100%" stop-color="#ecb244"></stop></linearGradient><clipPath id="SvgjsClipPath1003"><rect width="1000" height="1000" x="0" y="0" rx="350" ry="350"></rect></clipPath></defs><g><g fill="#584662" transform="matrix(2.342951569848735,0,0,2.342951569848735,10.06701370094833,117.34018485458527)" stroke="#000000" stroke-width="0.3"><path d="M9.98 0L9.15-2.66L4.45-2.66L3.63 0L-0.03 0L5.19-14.22L8.41-14.22L13.66 0L9.98 0ZM6.80-10.23L5.27-5.30L8.33-5.30L6.80-10.23ZM19.66 0.20L19.66 0.20Q17.23 0.20 15.72-1.25Q14.22-2.71 14.22-5.03L14.22-5.03L14.22-5.30Q14.22-6.92 14.82-8.16Q15.42-9.40 16.57-10.08Q17.72-10.76 19.31-10.76L19.31-10.76Q21.53-10.76 22.82-9.38Q24.11-8.00 24.11-5.53L24.11-5.53L24.11-4.25L17.57-4.25Q17.74-3.36 18.34-2.85Q18.94-2.34 19.88-2.34L19.88-2.34Q21.45-2.34 22.32-3.44L22.32-3.44L23.83-1.66Q23.21-0.81 22.08-0.31Q20.96 0.20 19.66 0.20ZM19.29-8.22L19.29-8.22Q17.84-8.22 17.57-6.31L17.57-6.31L20.89-6.31L20.89-6.56Q20.91-7.35 20.49-7.79Q20.07-8.22 19.29-8.22ZM25.98-13.19L29.27-13.19L29.27-10.57L31.01-10.57L31.01-8.28L29.27-8.28L29.27-3.45Q29.27-2.85 29.48-2.62Q29.70-2.38 30.33-2.38L30.33-2.38Q30.82-2.38 31.15-2.44L31.15-2.44L31.15-0.09Q30.26 0.20 29.30 0.20L29.30 0.20Q27.60 0.20 26.79-0.61Q25.98-1.41 25.98-3.04L25.98-3.04L25.98-8.28L24.63-8.28L24.63-10.57L25.98-10.57L25.98-13.19ZM35.52-15L35.52-9.43Q36.57-10.76 38.21-10.76L38.21-10.76Q39.96-10.76 40.85-9.73Q41.74-8.69 41.76-6.67L41.76-6.67L41.76 0L38.46 0L38.46-6.59Q38.46-7.43 38.12-7.83Q37.77-8.22 36.95-8.22L36.95-8.22Q35.94-8.22 35.52-7.58L35.52-7.58L35.52 0L32.23 0L32.23-15L35.52-15ZM48.70 0.20L48.70 0.20Q46.27 0.20 44.77-1.25Q43.26-2.71 43.26-5.03L43.26-5.03L43.26-5.30Q43.26-6.92 43.86-8.16Q44.46-9.40 45.62-10.08Q46.77-10.76 48.35-10.76L48.35-10.76Q50.58-10.76 51.87-9.38Q53.15-8.00 53.15-5.53L53.15-5.53L53.15-4.25L46.61-4.25Q46.79-3.36 47.38-2.85Q47.98-2.34 48.93-2.34L48.93-2.34Q50.49-2.34 51.37-3.44L51.37-3.44L52.87-1.66Q52.26-0.81 51.13-0.31Q50 0.20 48.70 0.20ZM48.33-8.22L48.33-8.22Q46.88-8.22 46.61-6.31L46.61-6.31L49.93-6.31L49.93-6.56Q49.95-7.35 49.53-7.79Q49.11-8.22 48.33-8.22ZM60.93-10.64L60.87-7.59L59.79-7.67Q58.23-7.67 57.79-6.69L57.79-6.69L57.79 0L54.50 0L54.50-10.57L57.59-10.57L57.70-9.21Q58.53-10.76 60.01-10.76L60.01-10.76Q60.54-10.76 60.93-10.64L60.93-10.64ZM65.53-10.57L65.53 0L62.23 0L62.23-10.57L65.53-10.57ZM62.03-13.29L62.03-13.29Q62.03-13.99 62.54-14.44Q63.05-14.89 63.86-14.89Q64.67-14.89 65.18-14.44Q65.68-13.99 65.68-13.29Q65.68-12.59 65.18-12.14Q64.67-11.69 63.86-11.69Q63.05-11.69 62.54-12.14Q62.03-12.59 62.03-13.29ZM76.80 0L73.51 0Q73.33-0.32 73.19-0.95L73.19-0.95Q72.29 0.20 70.65 0.20L70.65 0.20Q69.16 0.20 68.12-0.71Q67.07-1.61 67.07-2.98L67.07-2.98Q67.07-4.70 68.34-5.58Q69.61-6.46 72.03-6.46L72.03-6.46L73.05-6.46L73.05-7.01Q73.05-8.47 71.79-8.47L71.79-8.47Q70.62-8.47 70.62-7.31L70.62-7.31L67.32-7.31Q67.32-8.85 68.63-9.80Q69.93-10.76 71.95-10.76Q73.97-10.76 75.15-9.78Q76.32-8.79 76.35-7.07L76.35-7.07L76.35-2.39Q76.37-0.94 76.80-0.17L76.80-0.17L76.80 0ZM71.45-2.15L71.45-2.15Q72.06-2.15 72.47-2.41Q72.87-2.68 73.05-3.01L73.05-3.01L73.05-4.70L72.09-4.70Q70.37-4.70 70.37-3.15L70.37-3.15Q70.37-2.71 70.67-2.43Q70.98-2.15 71.45-2.15Z"></path></g></g></svg></svg></g></g></svg>